<svg xmlns="http://www.w3.org/2000/svg" viewBox="0 0 1500 500" role="img" aria-labelledby="title desc">
  <title id="title">ChatGPT Local Codex Tunnel</title>
  <desc id="desc">ChatGPT.com connects through OpenAI Secure MCP Tunnel to Codex CLI running on your laptop or server.</desc>
  <defs>
    <filter id="shadow" x="-20%" y="-20%" width="140%" height="140%">
      <feDropShadow dx="0" dy="4" stdDeviation="5" flood-color="#0f172a" flood-opacity="0.10"/>
    </filter>
    <style>
      .ink{stroke:#243447;stroke-width:3;stroke-linecap:round;stroke-linejoin:round}
      .muted{fill:#64748b}.label{fill:#0f172a;font-family:-apple-system,BlinkMacSystemFont,"Segoe UI",sans-serif;font-weight:700}
      .sub{fill:#64748b;font-family:-apple-system,BlinkMacSystemFont,"Segoe UI",sans-serif;font-weight:600}
      .green{fill:#10b981}.green-stroke{stroke:#10b981}.card{fill:#ffffff;stroke:#cbd5e1;stroke-width:2}
    </style>
  </defs>

  <!-- left: ChatGPT.com -->
  <g transform="translate(35 72)" filter="url(#shadow)">
    <rect x="0" y="0" width="360" height="270" rx="26" fill="#ffffff" class="ink"/>
    <path d="M0 54h360" class="ink" fill="none"/>
    <rect x="0" y="0" width="360" height="54" rx="26" fill="#233247"/>
    <rect x="0" y="28" width="360" height="26" fill="#233247"/>
    <circle cx="27" cy="27" r="7" fill="#fb5f57"/><circle cx="51" cy="27" r="7" fill="#f8c84d"/><circle cx="75" cy="27" r="7" fill="#29c941"/>
    <rect x="112" y="13" width="224" height="28" rx="14" fill="#f8fafc"/>
    <rect x="128" y="22" width="10" height="10" rx="2" fill="#334155"/><path d="M130 22v-3a3 3 0 0 1 6 0v3" fill="none" stroke="#334155" stroke-width="2"/>
    <text x="149" y="32" font-size="15" font-family="-apple-system,BlinkMacSystemFont,'Segoe UI',sans-serif" font-weight="700" fill="#1e293b">chatgpt.com</text>
    <path d="M100 54v216" stroke="#e2e8f0" stroke-width="2"/>
    <rect x="19" y="78" width="58" height="58" rx="14" fill="#10b981"/>
    <g transform="translate(48 107)" fill="none" stroke="#ffffff" stroke-width="4" stroke-linecap="round">
      <circle r="17"/><path d="M-14-8 0-16 14-8 14 8 0 16-14 8Z"/><path d="M-14 0 0 8 14 0M0-16V0M0 8v8"/>
    </g>
    <circle cx="34" cy="169" r="8" fill="#cbd5e1"/><rect x="49" y="163" width="29" height="11" rx="5" fill="#cbd5e1"/>
    <circle cx="34" cy="202" r="8" fill="#cbd5e1"/><rect x="49" y="196" width="29" height="11" rx="5" fill="#cbd5e1"/>
    <path d="M136 84h104a18 18 0 0 1 18 18v30a18 18 0 0 1-18 18h-83l-14 12 3-12h-10a18 18 0 0 1-18-18v-30a18 18 0 0 1 18-18Z" fill="#eef2f7"/>
    <rect x="144" y="104" width="79" height="8" rx="4" fill="#a8b4c2"/><rect x="144" y="121" width="48" height="8" rx="4" fill="#a8b4c2"/>
    <path d="M179 163h115a18 18 0 0 1 18 18v30a18 18 0 0 1-18 18h-7l3 12-14-12h-97a18 18 0 0 1-18-18v-30a18 18 0 0 1 18-18Z" fill="#d7f5e9"/>
    <rect x="184" y="183" width="94" height="8" rx="4" fill="#10b981"/><rect x="184" y="200" width="56" height="8" rx="4" fill="#10b981"/>
    <rect x="118" y="236" width="222" height="26" rx="13" fill="#ffffff" stroke="#d7dee7" stroke-width="2"/>
    <circle cx="137" cy="249" r="4" fill="#9aa8b8"/><circle cx="151" cy="249" r="4" fill="#9aa8b8"/><circle cx="165" cy="249" r="4" fill="#9aa8b8"/>
    <circle cx="319" cy="249" r="14" fill="#10b981"/><path d="M319 255v-12m-5 5 5-5 5 5" fill="none" stroke="#fff" stroke-width="3" stroke-linecap="round" stroke-linejoin="round"/>
  </g>
  <g transform="translate(70 366)" filter="url(#shadow)"><rect width="290" height="72" rx="22" class="card"/><text x="145" y="46" text-anchor="middle" font-size="28" class="label">ChatGPT.com</text></g>

  <!-- arrow 1 -->
  <g transform="translate(430 222)" fill="none" stroke="#10b981" stroke-width="13" stroke-linecap="round" stroke-linejoin="round"><path d="M0 0h100"/><path d="m78-22 24 22-24 22"/></g>

  <!-- center: tunnel -->
  <g transform="translate(545 72)" filter="url(#shadow)">
    <path d="M66 223C30 223 0 193 0 157c0-33 24-60 56-65 8-40 43-70 86-70 20 0 39 7 54 18 18-25 47-40 79-40 46 0 84 33 92 76 4-1 8-1 12-1 38 0 69 31 69 69s-31 69-69 69Z" fill="#ffffff" class="ink"/>
    <rect x="88" y="107" width="265" height="72" rx="36" fill="#d7f5e9" stroke="#38d4a0" stroke-width="3" opacity="0.95"/>
    <ellipse cx="93" cy="143" rx="22" ry="36" fill="#0f766e" stroke="#10b981" stroke-width="6"/>
    <ellipse cx="351" cy="143" rx="22" ry="36" fill="#0f766e" stroke="#10b981" stroke-width="6"/>
    <path d="M42 143h360" fill="none" stroke="#10b981" stroke-width="5" stroke-dasharray="12 12" stroke-linecap="round"/>
    <path d="M221 100 258 119v43c0 30-20 54-37 66-17-12-37-36-37-66v-43Z" fill="#10b981" stroke="#ffffff" stroke-width="4"/>
    <rect x="209" y="145" width="24" height="26" rx="5" fill="#fff"/><path d="M213 145v-9a8 8 0 0 1 16 0v9" fill="none" stroke="#fff" stroke-width="5"/>
  </g>
  <g transform="translate(635 304)"><rect width="268" height="40" rx="20" fill="#e9fbf4" stroke="#8ce4c3" stroke-width="2"/><rect x="18" y="13" width="13" height="13" rx="3" fill="#10b981"/><path d="M20 13v-4a5 5 0 0 1 10 0v4" fill="none" stroke="#10b981" stroke-width="2"/><text x="45" y="26" font-size="15" font-family="-apple-system,BlinkMacSystemFont,'Segoe UI',sans-serif" font-weight="700" fill="#1e293b">secure outbound connection</text></g>
  <g transform="translate(610 366)" filter="url(#shadow)"><rect width="320" height="72" rx="22" class="card"/><text x="160" y="34" text-anchor="middle" font-size="26" class="label">Secure MCP Tunnel</text><text x="160" y="58" text-anchor="middle" font-size="19" class="sub">OpenAI</text></g>

  <!-- arrow 2 -->
  <g transform="translate(965 222)" fill="none" stroke="#10b981" stroke-width="13" stroke-linecap="round" stroke-linejoin="round"><path d="M0 0h100"/><path d="m78-22 24 22-24 22"/></g>

  <!-- right: laptop -->
  <g transform="translate(1090 88)" filter="url(#shadow)">
    <rect x="26" y="0" width="330" height="230" rx="22" fill="#dbe3ec" class="ink"/>
    <rect x="38" y="13" width="306" height="199" rx="14" fill="#132238"/>
    <rect x="77" y="58" width="228" height="120" rx="12" fill="#0f1b2b" stroke="#475569" stroke-width="3"/>
    <rect x="77" y="58" width="228" height="28" rx="12" fill="#334155"/><rect x="77" y="74" width="228" height="12" fill="#334155"/>
    <circle cx="96" cy="72" r="6" fill="#fb5f57"/><circle cx="114" cy="72" r="6" fill="#f8c84d"/><circle cx="132" cy="72" r="6" fill="#29c941"/>
    <text x="103" y="136" font-size="30" font-family="ui-monospace,SFMono-Regular,Menlo,monospace" font-weight="700" fill="#10b981">&gt;</text>
    <text x="145" y="136" font-size="28" font-family="ui-monospace,SFMono-Regular,Menlo,monospace" font-weight="700" fill="#f8fafc">codex</text>
    <rect x="239" y="111" width="8" height="29" fill="#10b981"/>
    <path d="M9 230h364l28 42c4 7-1 16-9 16H-10c-8 0-13-9-9-16Z" fill="#dbe3ec" class="ink"/>
    <rect x="158" y="254" width="66" height="9" rx="4" fill="#8ea0b5"/>
  </g>
  <g transform="translate(1115 366)" filter="url(#shadow)"><rect width="330" height="72" rx="22" class="card"/><text x="165" y="34" text-anchor="middle" font-size="26" class="label">Your laptop / server</text><text x="165" y="58" text-anchor="middle" font-size="19" class="sub">Codex CLI</text></g>
</svg>
